<?xml version="1.0" encoding="UTF-8" standalone="no"?>
<svg 
  version="1.1" 
  xmlns="http://www.w3.org/2000/svg" 
  xmlns:xlink="http://www.w3.org/1999/xlink" 
  xmlns:svg="http://www.w3.org/2000/svg"
  xmlns:rdf="http://www.w3.org/1999/02/22-rdf-syntax-ns#"
  xmlns:cc="http://creativecommons.org/ns#"
  xmlns:dc="http://purl.org/dc/elements/1.1/"
  viewBox="0 0 768 768"
  width="768"
  height="768"
>
<style>svg {background-color: white; }</style>"
<metadata id="metadata1">
Created by https://svgstud.io and licensed under CC-BY-SA 4.0 license. Please attribute https://svgstud.io
</metadata>
<metadata id="prompt">
portal space icon
</metadata>
<metadata id="version">
7
</metadata>
<metadata id="metadata2">
<rdf:RDF>
<cc:Work
    rdf:about="">
    <cc:license
    rdf:resource="http://creativecommons.org/licenses/by-sa/4.0/" />
    <dc:creator>
        <cc:Agent>
            <dc:title>https://svgstud.io</dc:title>
        </cc:Agent>
    </dc:creator>
</cc:Work>
<cc:License
    rdf:about="http://creativecommons.org/licenses/by-sa/4.0/">
    <cc:permits
    rdf:resource="http://creativecommons.org/ns#Reproduction" />
    <cc:permits
    rdf:resource="http://creativecommons.org/ns#Distribution" />
    <cc:requires
    rdf:resource="http://creativecommons.org/ns#Notice" />
    <cc:requires
    rdf:resource="http://creativecommons.org/ns#Attribution" />
    <cc:permits
    rdf:resource="http://creativecommons.org/ns#DerivativeWorks" />
    <cc:requires
    rdf:resource="http://creativecommons.org/ns#ShareAlike" />
</cc:License>
</rdf:RDF>
</metadata>
<metadata id="uid">
1e01d32573bb79a192f1049b3d3051118dc685dd6f223c55da67096a76f81e12
</metadata>
<path stroke="none" fill="black" fill-rule="evenodd" d="M387.57,674.45C377.08,674.68 363.32,674.45 357.00,673.94C350.68,673.43 340.66,672.34 334.75,671.53C328.84,670.72 318.71,668.88 312.25,667.43C305.79,665.98 295.25,663.29 288.83,661.44C282.41,659.60 272.73,656.46 267.33,654.47C261.92,652.48 251.47,647.95 244.10,644.40C236.72,640.86 226.37,635.39 221.10,632.25C215.82,629.11 206.32,622.62 200.00,617.83C193.68,613.04 184.73,605.73 180.12,601.57C175.52,597.41 167.41,589.31 162.11,583.57C156.81,577.82 149.87,569.61 146.69,565.31C143.52,561.01 138.91,554.58 136.46,551.00C134.01,547.42 130.85,542.33 129.45,539.67C128.04,537.01 127.05,534.34 127.26,533.73C127.46,533.12 131.15,536.75 135.45,541.81C139.75,546.86 144.02,551.00 144.93,551.00C145.85,551.00 150.33,549.20 154.88,547.00C159.43,544.80 163.88,543.00 164.76,543.00C165.65,543.00 171.41,548.10 177.56,554.33C183.71,560.55 192.51,568.68 197.12,572.39C201.73,576.09 211.38,583.06 218.57,587.87C225.76,592.69 237.72,599.61 245.14,603.27C252.57,606.93 263.34,611.75 269.07,613.98C274.81,616.22 285.66,619.82 293.19,621.98C300.71,624.14 312.86,627.06 320.19,628.46C327.51,629.87 340.25,631.73 348.50,632.61C359.86,633.81 369.68,634.08 389.00,633.69C407.52,633.33 418.06,632.64 427.50,631.17C434.65,630.05 445.68,628.01 452.00,626.64C458.32,625.26 468.90,622.50 475.50,620.51C482.10,618.51 492.68,614.82 499.00,612.31C505.32,609.79 516.17,604.92 523.11,601.48C530.04,598.03 539.31,593.14 543.71,590.61C548.10,588.07 552.19,586.00 552.79,586.00C553.39,586.00 555.86,588.59 558.27,591.75C560.69,594.91 564.77,600.60 567.35,604.40C571.89,611.07 571.99,611.36 570.27,613.27C569.30,614.36 565.35,617.38 561.50,619.97C557.65,622.57 551.12,626.72 547.00,629.20C542.88,631.67 535.67,635.75 531.00,638.27C526.33,640.78 517.58,644.92 511.56,647.48C505.55,650.03 495.65,653.84 489.56,655.93C483.48,658.03 473.55,661.14 467.50,662.84C461.45,664.54 450.88,667.04 444.00,668.38C437.12,669.73 425.91,671.55 419.07,672.43C412.23,673.30 398.06,674.21 387.57,674.45zM595.81,586.96C595.09,586.94 591.19,583.28 587.14,578.83C579.78,570.73 579.78,570.73 591.76,558.75C600.99,549.52 604.16,546.92 605.62,547.39C606.65,547.73 610.64,550.86 614.47,554.34C621.44,560.68 621.44,560.68 619.54,563.58C618.50,565.17 613.03,571.09 607.38,576.74C601.74,582.38 596.53,586.98 595.81,586.96zM287.85,560.94C285.46,560.90 282.54,560.48 281.36,560.01C280.18,559.53 278.49,558.11 277.61,556.85C276.72,555.59 276.00,552.63 276.00,550.27C276.00,546.24 276.47,545.53 284.13,538.00C288.60,533.60 292.61,530.00 293.05,530.00C293.50,530.00 294.86,532.59 296.08,535.75C297.31,538.91 298.51,544.31 298.77,547.73C299.22,553.79 299.13,554.07 295.72,557.48C292.74,560.46 291.53,560.99 287.85,560.94zM393.64,530.43C385.86,530.67 375.54,530.48 370.69,530.01C365.85,529.54 358.20,528.42 353.69,527.52C349.19,526.62 340.13,524.09 333.56,521.91C327.00,519.73 317.45,515.90 312.34,513.40C307.23,510.89 298.20,505.63 292.28,501.69C284.64,496.62 277.70,490.74 268.46,481.52C261.29,474.36 252.78,464.95 249.55,460.60C246.31,456.26 241.59,449.06 239.05,444.60C236.51,440.15 232.71,432.68 230.61,428.00C228.51,423.32 226.48,419.16 226.10,418.75C225.72,418.34 215.75,416.02 203.95,413.60C192.15,411.18 179.80,408.44 176.50,407.50C173.20,406.56 168.62,404.72 166.33,403.40C163.34,401.69 161.79,399.94 160.86,397.25C159.93,394.57 159.55,386.17 159.53,367.66C159.50,341.82 159.50,341.82 162.50,339.40C164.15,338.06 170.22,335.44 176.00,333.56C181.78,331.69 192.80,328.58 200.50,326.67C208.20,324.75 216.35,322.89 218.62,322.53C221.45,322.07 223.06,321.19 223.80,319.68C224.38,318.48 226.55,313.45 228.61,308.50C230.67,303.55 233.94,296.57 235.87,293.00C237.80,289.43 241.94,282.68 245.06,278.00C248.19,273.32 254.36,265.45 258.77,260.50C263.18,255.55 269.65,249.00 273.14,245.94C276.64,242.88 282.05,238.47 285.17,236.13C288.29,233.79 295.62,229.01 301.46,225.50C307.29,222.00 317.79,216.88 324.78,214.14C331.78,211.39 342.68,207.77 349.00,206.11C355.32,204.44 364.31,202.61 368.97,202.04C373.63,201.47 383.31,201.00 390.47,201.01C397.64,201.01 407.98,201.69 413.46,202.51C418.94,203.34 426.76,204.95 430.84,206.10C434.92,207.24 442.34,209.75 447.34,211.68C452.34,213.61 460.37,217.18 465.19,219.60C470.02,222.02 476.56,225.64 479.73,227.65C482.90,229.65 488.88,233.80 493.00,236.86C497.12,239.92 505.05,246.94 510.61,252.46C516.18,257.98 523.87,266.77 527.71,272.00C531.55,277.23 536.76,285.05 539.30,289.40C541.83,293.74 545.78,301.73 548.06,307.15C550.35,312.57 552.58,317.00 553.01,317.00C553.45,317.00 559.13,317.90 565.65,319.00C572.17,320.10 583.00,322.37 589.71,324.04C596.43,325.71 603.48,327.72 605.37,328.51C607.27,329.30 609.76,331.15 610.91,332.61C612.89,335.14 613.00,336.44 612.99,358.38C612.99,371.15 612.53,383.16 611.96,385.21C611.37,387.33 609.73,389.77 608.12,390.92C606.57,392.02 601.90,394.03 597.74,395.39C593.59,396.75 582.83,399.53 573.84,401.57C564.42,403.71 556.84,405.96 555.93,406.89C555.07,407.78 552.87,412.55 551.05,417.50C549.22,422.45 545.94,430.10 543.75,434.50C541.55,438.90 537.28,446.32 534.24,451.00C531.20,455.68 526.14,462.66 522.99,466.52C519.83,470.38 513.03,477.66 507.88,482.70C502.72,487.73 495.57,494.03 492.00,496.69C488.43,499.35 483.65,502.73 481.39,504.19C479.13,505.65 472.20,509.39 465.99,512.51C459.77,515.62 449.44,519.93 443.03,522.07C436.61,524.22 426.06,526.88 419.57,527.99C413.09,529.10 401.42,530.20 393.64,530.43zM650.65,512.95C649.47,512.92 643.21,510.22 636.75,506.94C627.62,502.31 625.00,500.54 625.00,498.97C625.00,497.87 627.02,492.95 629.48,488.04C631.94,483.13 635.50,475.38 637.38,470.81C639.26,466.24 642.40,457.55 644.36,451.50C646.31,445.45 648.82,436.90 649.92,432.49C651.02,428.09 652.61,420.16 653.46,414.88C654.32,409.59 655.47,397.24 656.03,387.44C656.59,377.64 657.17,369.49 657.32,369.35C657.47,369.20 663.54,367.92 670.82,366.50C678.10,365.08 684.56,364.23 685.17,364.60C685.96,365.09 686.11,371.98 685.71,388.39C685.39,401.18 684.45,415.81 683.61,421.15C682.77,426.45 681.17,435.26 680.06,440.71C678.95,446.16 676.18,456.45 673.92,463.56C671.65,470.68 668.00,480.77 665.79,486.00C663.59,491.23 659.77,499.44 657.29,504.25C653.71,511.21 652.36,512.99 650.65,512.95zM141.71,497.00C141.43,497.00 139.85,495.45 138.19,493.56C136.53,491.67 134.71,489.31 134.15,488.31C133.17,486.56 132.94,486.57 127.82,488.34C124.89,489.36 119.93,491.33 116.79,492.71C113.64,494.10 110.43,494.99 109.64,494.69C108.86,494.39 106.76,491.07 104.98,487.32C103.20,483.57 99.78,475.10 97.38,468.50C94.97,461.90 91.68,451.10 90.06,444.50C88.43,437.90 86.37,427.55 85.48,421.50C84.59,415.45 83.44,403.75 82.92,395.50C82.40,387.25 82.23,375.77 82.55,370.00C82.87,364.23 83.81,354.36 84.63,348.07C85.45,341.78 87.46,330.67 89.10,323.38C90.74,316.08 93.13,307.05 94.40,303.31C95.68,299.56 98.85,291.33 101.44,285.01C104.03,278.70 108.47,269.02 111.30,263.51C114.13,258.01 119.89,248.32 124.10,242.00C128.32,235.68 134.30,227.46 137.40,223.75C140.51,220.04 143.68,217.00 144.45,217.00C145.23,217.00 146.90,218.46 148.17,220.25C149.44,222.04 153.52,227.03 157.24,231.34C160.96,235.65 164.00,239.82 164.00,240.59C164.00,241.36 161.93,244.81 159.39,248.25C156.86,251.69 152.40,258.55 149.49,263.50C146.57,268.45 141.83,277.23 138.94,283.00C136.06,288.77 131.73,298.68 129.33,305.00C126.93,311.32 123.63,321.90 122.01,328.50C120.39,335.10 118.35,344.77 117.48,350.00C116.60,355.23 115.62,368.05 115.31,378.50C114.86,393.24 115.11,400.49 116.44,410.83C117.37,418.17 119.66,430.32 121.52,437.83C123.38,445.35 126.22,455.32 127.83,460.00C129.44,464.68 133.03,473.68 135.80,480.01C138.57,486.35 141.15,492.76 141.53,494.26C141.91,495.77 141.99,497.00 141.71,497.00zM385.50,488.57C394.23,488.36 403.63,487.53 408.00,486.59C412.12,485.69 419.10,483.78 423.50,482.34C427.90,480.90 435.55,477.70 440.50,475.24C445.45,472.77 452.60,468.69 456.39,466.15C460.17,463.62 466.99,458.30 471.53,454.34C476.07,450.37 483.10,442.70 487.16,437.31C491.22,431.91 496.42,423.86 498.73,419.42C501.04,414.97 504.28,407.68 505.92,403.21C507.57,398.74 509.61,391.35 510.44,386.79C511.28,382.23 512.17,372.65 512.42,365.50C512.66,358.35 512.90,352.09 512.93,351.59C512.97,351.05 521.67,350.96 534.25,351.37C545.94,351.76 557.47,352.45 559.87,352.92C562.28,353.39 564.63,354.39 565.11,355.14C565.58,355.89 565.98,358.61 565.98,361.19C565.99,363.77 566.37,366.11 566.82,366.39C567.26,366.66 571.20,365.98 575.57,364.88C579.93,363.77 584.25,362.11 585.16,361.18C586.39,359.93 586.90,357.20 587.16,350.58C587.50,341.65 587.50,341.65 584.50,340.83C582.85,340.37 576.33,339.11 570.00,338.02C563.67,336.93 549.73,335.57 539.00,335.00C528.27,334.43 517.10,333.86 514.16,333.73C508.83,333.50 508.83,333.50 506.10,325.00C504.59,320.32 501.19,312.29 498.53,307.15C495.87,302.01 490.68,293.91 487.00,289.14C483.32,284.38 477.66,278.05 474.41,275.07C471.16,272.09 465.09,267.11 460.91,264.01C456.74,260.91 449.32,256.32 444.41,253.81C439.51,251.31 432.43,248.05 428.68,246.57C424.93,245.09 417.73,242.93 412.68,241.76C405.63,240.13 400.14,239.64 389.00,239.62C378.85,239.60 372.04,240.12 366.30,241.35C361.80,242.32 354.60,244.25 350.30,245.64C346.01,247.02 338.42,250.08 333.44,252.43C328.46,254.77 320.36,259.42 315.44,262.75C310.52,266.08 303.67,271.23 300.21,274.19C296.75,277.15 291.18,282.70 287.83,286.53C284.48,290.36 279.29,297.22 276.30,301.76C273.31,306.30 269.37,313.28 267.56,317.26C265.74,321.24 263.34,327.20 262.22,330.50C261.10,333.80 259.49,340.32 258.63,345.00C257.77,349.68 256.71,356.65 256.28,360.50C255.50,367.50 255.50,367.50 239.00,367.36C226.81,367.25 219.98,366.69 212.84,365.21C207.53,364.10 201.90,362.58 200.34,361.84C198.78,361.09 197.50,359.82 197.50,359.02C197.50,358.06 200.25,356.75 205.50,355.20C209.90,353.89 215.30,352.31 217.50,351.66C221.46,350.51 221.50,350.45 221.81,345.15C222.11,339.80 222.11,339.80 216.81,340.52C213.89,340.92 205.88,342.78 199.00,344.66C192.12,346.54 184.93,348.85 183.00,349.79C179.50,351.50 179.50,351.50 179.56,361.77C179.60,369.37 179.99,372.39 181.06,373.40C181.85,374.15 185.43,375.71 189.00,376.87C192.57,378.02 199.88,379.86 205.22,380.96C210.57,382.05 220.92,383.41 228.22,383.99C235.53,384.56 244.88,385.13 249.00,385.26C256.50,385.50 256.50,385.50 257.83,390.00C258.55,392.48 260.30,398.10 261.70,402.50C263.10,406.90 265.59,413.20 267.23,416.50C268.87,419.80 272.74,426.32 275.83,431.00C278.92,435.68 285.96,444.02 291.47,449.54C296.99,455.07 304.61,461.89 308.41,464.70C312.20,467.51 319.18,471.84 323.91,474.31C328.63,476.79 337.24,480.42 343.03,482.39C348.82,484.35 357.37,486.63 362.03,487.44C367.82,488.46 375.24,488.81 385.50,488.57zM384.93,474.98C384.15,474.97 381.70,474.13 379.50,473.13C377.30,472.13 371.51,467.66 366.64,463.20C361.77,458.74 354.60,451.13 350.72,446.30C346.84,441.46 342.22,435.25 340.46,432.50C338.70,429.75 335.23,423.45 332.75,418.50C330.26,413.55 326.89,405.68 325.26,401.00C323.62,396.32 321.50,389.26 320.55,385.29C319.59,381.33 318.29,377.69 317.65,377.21C317.02,376.73 312.90,375.33 308.50,374.09C304.10,372.85 299.49,370.89 298.25,369.74C296.29,367.92 296.00,366.65 296.00,359.85C296.00,352.35 296.11,352.00 298.75,350.63C300.26,349.85 306.00,348.29 311.50,347.16C317.00,346.03 326.45,344.60 332.50,343.99C338.55,343.38 353.62,342.50 366.00,342.04C378.38,341.58 400.29,341.59 414.70,342.07C429.11,342.54 444.83,343.42 449.62,344.01C454.41,344.61 461.52,345.76 465.42,346.57C469.42,347.41 473.04,348.77 473.75,349.71C474.45,350.65 475.00,354.26 475.00,357.97C475.00,362.22 474.47,365.32 473.49,366.71C472.66,367.89 469.62,369.73 466.74,370.80C463.86,371.86 459.14,373.29 456.26,373.96C451.28,375.13 450.97,375.40 449.92,379.35C449.31,381.63 447.04,389.12 444.86,396.00C442.69,402.88 439.39,411.75 437.53,415.73C435.67,419.70 430.72,428.14 426.54,434.47C421.43,442.21 414.98,450.08 406.90,458.44C399.63,465.96 393.19,471.70 390.62,472.94C388.28,474.07 385.72,474.99 384.93,474.98zM381.09,456.00C381.49,456.00 383.77,453.82 386.16,451.16C388.55,448.50 394.20,439.84 398.72,431.91C403.23,423.99 408.99,412.68 411.51,406.78C414.04,400.89 417.21,391.70 418.56,386.37C419.91,381.04 420.79,376.45 420.51,376.18C420.23,375.90 417.19,375.77 413.75,375.88C410.31,376.00 405.87,376.52 403.87,377.05C400.42,377.97 399.97,378.60 394.97,389.76C392.07,396.22 388.57,403.75 387.20,406.50C384.70,411.50 384.70,411.50 382.77,407.00C381.71,404.52 379.05,397.78 376.88,392.01C374.70,386.24 372.57,381.17 372.14,380.74C371.72,380.32 365.18,379.26 357.61,378.39C350.05,377.52 343.59,377.08 343.25,377.42C342.91,377.75 343.45,381.51 344.43,385.76C345.42,390.02 347.79,397.77 349.70,403.00C351.62,408.23 355.90,417.67 359.22,423.99C362.54,430.30 367.51,438.85 370.26,442.99C373.02,447.12 376.42,451.74 377.82,453.25C379.23,454.76 380.70,456.00 381.09,456.00zM384.00,372.46C400.77,372.26 416.70,371.69 419.38,371.19C422.42,370.62 424.68,369.56 425.36,368.39C425.97,367.35 427.03,364.93 427.72,363.00C428.41,361.07 428.98,359.16 428.98,358.75C428.99,358.34 408.30,358.00 383.00,358.00C357.70,358.00 337.00,358.37 337.00,358.82C337.00,359.27 337.72,362.08 338.60,365.07C339.48,368.06 340.42,370.73 340.68,371.00C340.95,371.27 343.94,371.80 347.33,372.16C350.72,372.52 367.23,372.65 384.00,372.46zM443.31,338.95C442.86,339.32 437.39,339.06 431.14,338.37C424.90,337.69 419.22,336.91 418.52,336.65C417.83,336.38 415.15,329.64 412.57,321.67C410.00,313.70 405.70,302.98 403.02,297.84C400.35,292.70 395.54,283.44 392.35,277.25C389.15,271.06 386.19,266.00 385.76,266.00C385.33,266.00 383.31,268.59 381.27,271.75C379.23,274.91 373.25,286.05 367.98,296.50C362.71,306.95 356.89,320.00 355.04,325.50C353.20,331.00 351.56,335.66 351.41,335.85C351.25,336.05 347.61,336.60 343.31,337.08C339.02,337.56 333.59,338.24 331.25,338.59C327.15,339.21 327.00,339.13 327.00,336.54C327.00,335.06 328.16,330.40 329.57,326.18C330.99,321.95 333.89,314.78 336.02,310.23C338.14,305.69 342.17,298.18 344.96,293.56C347.76,288.93 352.57,281.85 355.66,277.83C358.76,273.80 363.34,268.25 365.85,265.50C368.36,262.75 373.58,257.69 377.44,254.25C381.47,250.66 385.39,248.00 386.63,248.00C388.01,248.00 392.50,251.51 398.88,257.58C404.43,262.86 411.79,271.07 415.25,275.83C418.71,280.60 422.73,286.34 424.18,288.59C425.63,290.84 428.69,296.40 430.97,300.94C433.26,305.49 436.48,312.87 438.13,317.35C439.79,321.83 441.81,328.38 442.63,331.89C443.44,335.41 443.75,338.59 443.31,338.95zM654.31,331.97C653.10,331.99 651.85,331.57 651.52,331.04C651.19,330.51 649.41,324.52 647.55,317.74C645.69,310.96 642.50,301.15 640.46,295.95C638.42,290.75 633.63,280.32 629.81,272.77C626.00,265.21 619.47,253.96 615.31,247.77C611.14,241.57 603.73,231.69 598.84,225.82C593.95,219.94 585.79,211.22 580.72,206.44C575.65,201.67 567.16,194.26 561.86,189.99C556.55,185.72 546.43,178.38 539.36,173.68C532.29,168.99 521.10,162.40 514.50,159.06C507.90,155.71 496.81,150.73 489.86,147.99C482.91,145.25 471.64,141.48 464.82,139.61C457.99,137.74 447.79,135.25 442.16,134.08C436.52,132.91 425.74,131.24 418.21,130.37C407.89,129.17 399.05,128.90 382.50,129.30C370.01,129.59 356.26,130.50 350.69,131.39C345.29,132.26 335.62,134.14 329.19,135.57C322.76,137.01 310.30,140.55 301.50,143.46C292.70,146.36 279.67,151.32 272.54,154.49C265.40,157.65 255.50,162.48 250.54,165.23C245.57,167.97 235.88,173.93 229.00,178.47C222.12,183.00 212.25,190.16 207.05,194.36C201.85,198.56 196.86,202.00 195.97,202.00C195.08,202.00 192.01,199.12 189.16,195.60C186.30,192.08 182.24,187.64 180.12,185.73C178.01,183.82 175.70,182.07 175.00,181.83C173.98,181.49 173.96,180.94 174.92,179.16C175.58,177.92 181.83,172.18 188.81,166.40C195.79,160.62 206.79,152.21 213.27,147.70C219.74,143.19 230.76,136.44 237.77,132.69C244.77,128.94 255.90,123.49 262.50,120.57C269.10,117.65 279.90,113.37 286.50,111.06C293.10,108.75 304.57,105.34 312.00,103.49C319.43,101.63 330.23,99.19 336.00,98.08C341.77,96.97 352.57,95.37 360.00,94.53C367.43,93.69 381.60,93.01 391.50,93.01C401.40,93.02 415.35,93.68 422.50,94.48C429.65,95.28 439.55,96.65 444.50,97.52C449.45,98.39 458.00,100.23 463.50,101.63C469.00,103.02 478.35,105.72 484.27,107.63C490.19,109.55 499.42,112.93 504.77,115.15C510.12,117.37 521.11,122.55 529.18,126.67C537.25,130.79 548.65,137.28 554.50,141.09C560.36,144.91 568.74,150.76 573.14,154.10C577.53,157.45 585.16,163.74 590.10,168.09C595.03,172.43 599.73,176.55 600.53,177.24C601.34,177.94 606.86,183.90 612.80,190.50C618.75,197.10 626.12,205.65 629.19,209.50C632.25,213.35 638.03,221.45 642.02,227.50C646.01,233.55 653.48,247.03 658.61,257.45C664.24,268.89 669.69,281.77 672.37,289.95C674.81,297.40 677.80,308.15 679.02,313.84C680.58,321.16 680.92,324.48 680.16,325.24C679.57,325.83 674.01,327.57 667.80,329.12C661.58,330.67 655.51,331.95 654.31,331.97zM304.78,246.45C306.74,245.63 308.83,244.58 309.42,244.12C310.02,243.66 315.45,241.03 321.50,238.28C327.55,235.52 336.90,231.62 342.28,229.61C347.66,227.59 356.21,224.83 361.28,223.46C366.35,222.09 377.48,220.07 386.00,218.96C394.52,217.86 403.98,216.51 407.00,215.97C410.02,215.42 415.43,214.60 419.00,214.15C425.50,213.33 425.50,213.33 421.50,211.54C419.30,210.56 413.68,209.08 409.00,208.26C402.72,207.16 396.44,206.92 385.00,207.34C374.80,207.71 366.42,208.60 360.50,209.96C355.55,211.09 348.57,212.97 345.00,214.13C341.43,215.30 333.77,218.67 328.00,221.62C322.23,224.57 314.24,229.69 310.27,233.00C306.29,236.31 302.37,240.04 301.55,241.28C300.74,242.53 300.33,244.53 300.64,245.74C301.19,247.85 301.35,247.88 304.78,246.45z" />

</svg>